<svg width="800" height="715" viewBox="0 0 800 715" fill="none" xmlns="http://www.w3.org/2000/svg">
<path fill-rule="evenodd" clip-rule="evenodd" d="M257.143 142.857C257.143 63.9593 321.102 0 400 0C478.898 0 542.857 63.9593 542.857 142.857C542.857 221.755 478.898 285.714 400 285.714C321.102 285.714 257.143 221.755 257.143 142.857Z" fill="white"/>
<path fill-rule="evenodd" clip-rule="evenodd" d="M542.857 257.143C542.857 194.025 594.025 142.857 657.143 142.857C720.261 142.857 771.429 194.025 771.429 257.143C771.429 320.261 720.261 371.429 657.143 371.429C594.025 371.429 542.857 320.261 542.857 257.143Z" fill="white"/>
<path fill-rule="evenodd" clip-rule="evenodd" d="M28.5714 257.143C28.5714 194.025 79.7389 142.857 142.857 142.857C205.975 142.857 257.143 194.025 257.143 257.143C257.143 320.261 205.975 371.429 142.857 371.429C79.7389 371.429 28.5714 320.261 28.5714 257.143Z" fill="white"/>
<path fill-rule="evenodd" clip-rule="evenodd" d="M183.233 461.62C228.87 390.263 308.889 342.857 400 342.857C491.122 342.857 571.15 390.275 616.784 461.646C648.333 510.988 661.982 570.484 655.58 628.492C654.579 637.558 649.311 645.601 641.4 650.14C570.263 690.957 487.813 714.286 400 714.286C312.187 714.286 229.737 690.957 158.6 650.14C150.689 645.601 145.421 637.558 144.42 628.492C138.017 570.473 151.673 510.966 183.233 461.62Z" fill="white"/>
<path d="M136.468 428.712C136.009 429.417 135.553 430.123 135.1 430.832C98.3205 488.339 81.4887 556.826 86.6557 624.343C63.4921 620.825 41.017 615.165 19.4449 607.568L15.0655 606.026C7.07652 603.213 1.49438 595.957 0.822513 587.514L0.454215 582.886C0.153034 579.101 0 575.28 0 571.429C0 494.672 60.535 432.054 136.468 428.712Z" fill="white"/>
<path d="M713.358 624.341C718.523 556.838 701.7 488.365 664.934 430.864C664.474 430.145 664.012 429.428 663.546 428.712C739.472 432.061 800 494.677 800 571.429C800 575.28 799.847 579.101 799.546 582.886L799.177 587.514C798.506 595.957 792.923 603.213 784.934 606.026L780.555 607.568C758.987 615.164 736.516 620.823 713.358 624.341Z" fill="white"/>
</svg>
