<svg width="800" height="800" viewBox="0 0 800 800" fill="none" xmlns="http://www.w3.org/2000/svg">
<path fill-rule="evenodd" clip-rule="evenodd" d="M400 0C420.083 0 436.364 16.2806 436.364 36.3636V363.636H763.636C783.719 363.636 800 379.917 800 400C800 420.083 783.719 436.364 763.636 436.364H436.364V763.637C436.364 783.72 420.083 800 400 800C379.917 800 363.636 783.72 363.636 763.637V436.364H36.3636C16.2806 436.364 0 420.083 0 400C0 379.917 16.2806 363.636 36.3636 363.636H363.636V36.3636C363.636 16.2806 379.917 0 400 0Z" fill="white"/>
</svg>
