<svg viewBox="0 0 800 934" fill="#ff2c2c" xmlns="http://www.w3.org/2000/svg">
<path fill-rule="evenodd" clip-rule="evenodd" d="M599.997 132.362V142.441C642.429 146.326 684.509 151.434 726.202 157.73C741.639 160.061 757.022 162.556 772.351 165.211C790.49 168.353 802.648 185.605 799.505 203.744C796.363 221.883 779.111 234.041 760.972 230.898C757.879 230.363 754.783 229.833 751.685 229.311L707 810.215C701.656 879.681 643.732 933.321 574.061 933.321H225.939C156.268 933.321 98.3435 879.681 93 810.215L48.3151 229.311C45.217 229.833 42.1211 230.363 39.0276 230.898C20.8885 234.041 3.63668 221.883 0.494572 203.744C-2.64754 185.605 9.50993 168.353 27.649 165.211C42.9777 162.556 58.3613 160.061 73.7981 157.73C115.491 151.434 157.571 146.326 200.003 142.441V132.362C200.003 62.8309 253.892 3.47473 325.131 1.19585C349.991 0.400611 374.949 0 400 0C425.051 0 450.009 0.400611 474.869 1.19585C546.108 3.47473 599.997 62.8309 599.997 132.362ZM327.263 67.8275C351.413 67.055 375.66 66.6658 400 66.6658C424.34 66.6658 448.587 67.055 472.737 67.8275C506.275 68.9004 533.332 97.0624 533.332 132.362V137.368C489.227 134.69 444.77 133.332 400 133.332C355.23 133.332 310.773 134.69 266.668 137.368V132.362C266.668 97.0624 293.725 68.9004 327.263 67.8275ZM311.495 332.048C310.787 313.652 295.301 299.313 276.905 300.021C258.51 300.728 244.171 316.214 244.878 334.61L260.262 734.604C260.97 753 276.456 767.339 294.852 766.632C313.247 765.924 327.586 750.438 326.879 732.042L311.495 332.048ZM555.081 334.61C555.788 316.214 541.449 300.728 523.054 300.021C504.658 299.313 489.172 313.652 488.464 332.048L473.08 732.042C472.373 750.438 486.712 765.924 505.107 766.632C523.503 767.339 538.989 753 539.697 734.604L555.081 334.61Z" fill="#ff2c2c"/>
</svg>
