<svg width="800" height="1067" viewBox="0 0 800 1067" fill="none" xmlns="http://www.w3.org/2000/svg">
<path d="M377.438 572.758C377.438 572.758 316.95 458.179 319.184 374.453C320.814 314.623 458.043 255.481 511.919 169.603C565.702 83.6789 505.214 0 505.214 0C505.214 0 518.672 61.7061 482.815 125.519C446.96 189.424 314.618 226.914 263.164 337.054C211.711 447.194 377.438 572.758 377.438 572.758Z" fill="white"/>
<path d="M603.841 224.671C603.841 224.671 397.693 301.805 397.693 389.879C397.693 478.044 453.665 506.655 462.7 535.266C471.641 563.968 447.008 612.4 447.008 612.4C447.008 612.4 527.661 557.33 514.155 493.428C500.698 429.523 437.973 409.655 473.875 345.844C497.857 303.042 603.841 224.671 603.841 224.671Z" fill="white"/>
<path d="M355.086 689.167C545.587 682.485 615.064 623.387 615.064 623.387C491.851 656.393 164.633 654.241 162.351 630.025C160.162 605.809 263.167 585.941 263.167 585.941C263.167 585.941 101.863 585.941 88.4053 625.583C74.9455 665.227 164.723 695.714 355.086 689.167Z" fill="white"/>
<path d="M630.708 782.003C630.708 782.003 817.157 742.911 798.717 643.346C776.365 522.13 646.353 590.427 646.353 590.427C646.353 590.427 738.32 590.427 747.214 645.451C756.203 700.521 630.708 782.003 630.708 782.003Z" fill="white"/>
<path d="M538.834 729.176C538.834 729.176 491.849 741.307 422.234 748.997C328.916 759.296 216.087 751.149 207.1 735.721C198.253 720.295 222.792 711.505 222.792 711.505C110.707 737.964 172.035 784.153 303.397 793.034C415.993 800.587 583.583 759.984 583.583 759.984L538.834 729.176Z" fill="white"/>
<path d="M249.8 825.399C249.8 825.399 198.95 826.819 195.969 853.278C193.035 879.555 227.262 903.174 352.802 910.5C478.296 917.824 566.492 876.762 566.492 876.762L509.728 842.888C509.728 842.888 473.826 850.303 418.551 857.629C363.231 864.999 249.795 851.723 245.327 841.515C240.765 831.212 249.8 825.399 249.8 825.399Z" fill="white"/>
<path d="M738.229 944.372C757.647 923.772 732.221 907.614 732.221 907.614C732.221 907.614 741.163 917.913 729.335 929.634C717.367 941.352 608.264 970.695 433.455 979.53C258.694 988.364 68.9377 963.37 62.9299 941.352C57.11 919.333 160.112 901.755 160.112 901.755C148.192 903.219 4.76898 906.15 0.205385 944.372C-4.26538 982.503 62.9299 1013.36 331.94 1013.36C600.814 1013.31 718.904 964.834 738.229 944.372Z" fill="white"/>
<path d="M633.69 1030.98C515.645 1054.42 157.181 1039.63 157.181 1039.63C157.181 1039.63 390.151 1094.02 656.087 1048.51C783.211 1026.72 790.615 966.253 790.615 966.253C790.615 966.253 751.734 1007.41 633.69 1030.98Z" fill="white"/>
</svg>
