<svg width="650" height="800" viewBox="0 0 13 16" fill="none" xmlns="http://www.w3.org/2000/svg">
<path d="M1.30004 16C1.06213 16 0.825525 15.92 0.616219 15.7616C0.427941 15.6178 0.272553 15.4173 0.164731 15.1791C0.0569098 14.9408 0.000214312 14.6727 0 14.4V1.59974C0 1.04453 0.234007 0.529323 0.616219 0.238118C0.804913 0.0953325 1.02001 0.0139569 1.24129 0.00164134C1.46257 -0.0106742 1.68276 0.0464751 1.88116 0.167716L12.2815 6.56783C12.4974 6.70096 12.679 6.90541 12.8059 7.15832C12.9328 7.41123 13 7.70261 13 7.99986C13 8.2971 12.9328 8.58849 12.8059 8.84139C12.679 9.0943 12.4974 9.29876 12.2815 9.43188L1.88116 15.832C1.69915 15.944 1.49765 16 1.30004 16Z" fill="#0A400A"/>
</svg>

