<svg width="800" height="815" viewBox="0 0 800 815" fill="none" xmlns="http://www.w3.org/2000/svg">
<path fill-rule="evenodd" clip-rule="evenodd" d="M734.636 434.075C728.109 426.645 724.509 417.094 724.509 407.204C724.509 397.314 728.109 387.762 734.636 380.332L786.751 321.702C792.494 315.297 796.06 307.237 796.937 298.679C797.815 290.12 795.96 281.504 791.637 274.066L710.207 133.193C705.928 125.763 699.413 119.874 691.59 116.365C683.768 112.856 675.037 111.905 666.642 113.65L590.098 129.121C580.359 131.134 570.219 129.512 561.593 124.561C552.968 119.611 546.452 111.674 543.276 102.25L518.44 27.7415C515.709 19.6546 510.505 12.6308 503.564 7.66261C496.623 2.69446 488.297 0.0333372 479.761 0.0553705H316.902C308.023 -0.408047 299.237 2.0474 291.885 7.04668C284.533 12.046 279.02 19.3143 276.187 27.7415L253.387 102.25C250.211 111.674 243.695 119.611 235.07 124.561C226.444 129.512 216.304 131.134 206.565 129.121L127.985 113.65C120.027 112.525 111.915 113.781 104.67 117.259C97.4243 120.736 91.3703 126.281 87.2702 133.193L5.84058 274.066C1.40918 281.421 -0.583319 289.989 0.147939 298.545C0.879197 307.101 4.29677 315.206 9.91206 321.702L61.6199 380.332C68.1473 387.762 71.7471 397.314 71.7471 407.204C71.7471 417.094 68.1473 426.645 61.6199 434.075L9.91206 492.705C4.29677 499.201 0.879197 507.307 0.147939 515.862C-0.583319 524.418 1.40918 532.986 5.84058 540.341L87.2702 681.214C91.5493 688.644 98.0645 694.533 105.887 698.043C113.71 701.552 122.441 702.502 130.835 700.758L207.379 685.286C217.119 683.274 227.258 684.896 235.884 689.846C244.51 694.796 251.025 702.733 254.201 712.158L279.037 786.666C281.87 795.093 287.383 802.361 294.735 807.361C302.087 812.36 310.873 814.815 319.752 814.352H482.611C491.147 814.374 499.473 811.713 506.414 806.745C513.355 801.777 518.559 794.753 521.29 786.666L546.126 712.158C549.302 702.733 555.818 694.796 564.443 689.846C573.069 684.896 583.209 683.274 592.948 685.286L669.492 700.758C677.887 702.502 686.618 701.552 694.44 698.043C702.263 694.533 708.778 688.644 713.057 681.214L794.487 540.341C798.81 532.903 800.665 524.287 799.787 515.729C798.91 507.171 795.344 499.11 789.601 492.705L734.636 434.075ZM398.5 489C443.511 489 480 452.511 480 407.5C480 362.489 443.511 326 398.5 326C353.489 326 317 362.489 317 407.5C317 452.511 353.489 489 398.5 489Z" fill="black"/>
</svg>
