<svg width="800" height="852" viewBox="0 0 800 852" fill="none" xmlns="http://www.w3.org/2000/svg">
<path fill-rule="evenodd" clip-rule="evenodd" d="M359.722 0C319.681 0 285.508 28.9485 278.925 68.4451L271.12 115.276C270.24 120.558 266.126 126.68 258.162 130.51C243.131 137.739 228.742 146.077 215.1 155.418C207.827 160.397 200.473 160.904 195.454 159.024L150.93 142.344C113.433 128.296 71.277 143.416 51.2563 178.093L10.9786 247.856C-9.04215 282.533 -1.05829 326.602 29.8554 352.051L66.5746 382.279C70.7084 385.682 73.9458 392.293 73.2862 401.069C72.6688 409.284 72.3549 417.578 72.3549 425.939C72.3549 434.303 72.669 442.599 73.2869 450.817C73.9468 459.594 70.7093 466.205 66.5754 469.608L29.8554 499.837C-1.0583 525.286 -9.04214 569.355 10.9786 604.032L51.2563 673.795C71.277 708.472 113.433 723.592 150.93 709.544L195.464 692.86C200.483 690.98 207.836 691.487 215.109 696.466C228.748 705.804 243.135 714.14 258.162 721.367C266.126 725.197 270.24 731.32 271.12 736.602L278.926 783.432C285.508 822.929 319.681 851.877 359.722 851.877H440.278C480.319 851.877 514.492 822.929 521.074 783.432L528.88 736.602C529.76 731.319 533.874 725.197 541.838 721.367C556.869 714.138 571.258 705.8 584.9 696.46C592.173 691.48 599.527 690.973 604.546 692.853L649.07 709.534C686.567 723.581 728.723 708.461 748.744 673.784L789.021 604.021C809.042 569.344 801.058 525.276 770.145 499.826L733.425 469.598C729.292 466.195 726.054 459.584 726.714 450.808C727.331 442.593 727.645 434.3 727.645 425.939C727.645 417.574 727.331 409.278 726.713 401.06C726.053 392.283 729.291 385.672 733.425 382.269L770.145 352.04C801.058 326.591 809.042 282.522 789.021 247.846L748.744 178.082C728.723 143.406 686.567 128.286 649.07 142.333L604.536 159.017C599.517 160.897 592.164 160.39 584.891 155.411C571.252 146.073 556.865 137.737 541.838 130.51C533.874 126.68 529.76 120.558 528.88 115.276L521.074 68.4451C514.492 28.9485 480.319 0 440.278 0H359.722ZM400.005 589.761C490.482 589.761 563.828 516.415 563.828 425.939C563.828 335.462 490.482 262.116 400.005 262.116C309.529 262.116 236.183 335.462 236.183 425.939C236.183 516.415 309.529 589.761 400.005 589.761Z" fill="#14DE42"/>
</svg>

