<svg width="47" height="104" viewBox="0 0 47 104" fill="none" xmlns="http://www.w3.org/2000/svg">
<path d="M11.035 88.2552L19.8812 100.527C20.4487 101.314 21.6923 100.912 21.6923 99.9418V45.2891C21.6923 44.7368 21.2446 44.2891 20.6923 44.2891H11.8462C11.2939 44.2891 10.8462 44.7368 10.8462 45.2891V87.6705C10.8462 87.8804 10.9122 88.085 11.035 88.2552Z" fill="white"/>
<path d="M35.965 88.2552L27.1188 100.527C26.5513 101.314 25.3077 100.912 25.3077 99.9418V45.2891C25.3077 44.7368 25.7554 44.2891 26.3077 44.2891H35.1538C35.7061 44.2891 36.1538 44.7368 36.1538 45.2891V87.6705C36.1538 87.8804 36.0878 88.085 35.965 88.2552Z" fill="white"/>
<path d="M37.3225 40.6731H9.67752C8.95281 40.6731 8.46875 39.9262 8.7647 39.2647L10.2961 35.8416C10.4571 35.4817 10.8146 35.25 11.2089 35.25H35.7912C36.1855 35.25 36.543 35.4817 36.704 35.8416L38.2354 39.2647C38.5313 39.9262 38.0472 40.6731 37.3225 40.6731Z" fill="white"/>
<path d="M5.47544 37.7088L7.96616 34.5954C8.31452 34.1599 8.23941 33.5237 7.79923 33.1813L1.61394 28.3705C0.957082 27.8596 0 28.3277 0 29.1599V33.3895C0 33.6547 0.105357 33.9091 0.292894 34.0966L3.98746 37.7912C4.4089 38.2126 5.10311 38.1742 5.47544 37.7088Z" fill="white"/>
<path d="M41.5246 37.7088L39.0338 34.5954C38.6855 34.1599 38.7606 33.5237 39.2008 33.1813L45.3861 28.3705C46.0429 27.8596 47 28.3277 47 29.1599V33.3895C47 33.6547 46.8946 33.9091 46.7071 34.0966L43.0125 37.7912C42.5911 38.2126 41.8969 38.1742 41.5246 37.7088Z" fill="white"/>
<path d="M16.2692 29.7991C16.2692 28.7685 29.3731 22.5848 30.4651 23.6154C31.5571 24.646 31.5571 27.7379 31.5571 28.7685C31.5571 29.7991 18.4532 33.9215 17.3612 32.8909C16.2692 31.8603 16.2692 30.8297 16.2692 29.7991Z" fill="#14DE42"/>
<path d="M17.535 18.8464V23.4986C17.535 24.238 18.3126 24.7316 18.9871 24.4288C20.1326 23.9144 21.9478 23.1269 24.4038 22.1445C27.1861 21.0316 28.9487 20.2194 31.1827 18.4117C33.4678 16.5627 33.7585 12.1798 33.783 10.4915C33.7889 10.08 33.5231 9.72489 33.1318 9.59735C31.37 9.02318 26.3467 7.46193 22.3125 6.9457C16.4602 6.19684 14.4615 4.07929 14.4615 9.81227C14.4615 14.4452 16.4687 17.2061 17.2389 18.0951C17.4205 18.3047 17.535 18.5691 17.535 18.8464Z" fill="white"/>
<path d="M34.3461 10.3942C34.3461 16.1348 32.747 20.7885 23.9518 20.7885C18.2113 20.7885 13.5576 16.1348 13.5576 10.3942C13.5576 4.65366 18.2113 0 23.9518 0C29.6924 0 34.3461 4.65366 34.3461 10.3942Z" fill="white"/>
</svg>
