<?xml version="1.0" encoding="utf-8"?>

<!-- Uploaded to: SVG Repo, www.svgrepo.com, Generator: SVG Repo Mixer Tools -->
<svg fill="#000000" height="800px" width="800px" version="1.1" id="Layer_1" xmlns="http://www.w3.org/2000/svg" xmlns:xlink="http://www.w3.org/1999/xlink" 
	 viewBox="-143 145 512 512" xml:space="preserve">
<path d="M113,145c-141.4,0-256,114.6-256,256s114.6,256,256,256s256-114.6,256-256S254.4,145,113,145z M215.2,361.2
	c0.1,2.2,0.1,4.5,0.1,6.8c0,69.5-52.9,149.7-149.7,149.7c-29.7,0-57.4-8.7-80.6-23.6c4.1,0.5,8.3,0.7,12.6,0.7
	c24.6,0,47.3-8.4,65.3-22.5c-23-0.4-42.5-15.6-49.1-36.5c3.2,0.6,6.5,0.9,9.9,0.9c4.8,0,9.5-0.6,13.9-1.9
	C13.5,430-4.6,408.7-4.6,383.2v-0.6c7.1,3.9,15.2,6.3,23.8,6.6c-14.1-9.4-23.4-25.6-23.4-43.8c0-9.6,2.6-18.7,7.1-26.5
	c26,31.9,64.7,52.8,108.4,55c-0.9-3.8-1.4-7.8-1.4-12c0-29,23.6-52.6,52.6-52.6c15.1,0,28.8,6.4,38.4,16.6
	c12-2.4,23.2-6.7,33.4-12.8c-3.9,12.3-12.3,22.6-23.1,29.1c10.6-1.3,20.8-4.1,30.2-8.3C234.4,344.5,225.5,353.7,215.2,361.2z"/>
</svg>