<svg width="48" height="48" viewBox="0 0 48 48" fill="none" xmlns="http://www.w3.org/2000/svg">
  <path d="M7.02332 7.05262C7.60911 6.46683 8.55886 6.46683 9.14464 7.05262L23.9996 21.9075L38.8545 7.05262C39.4403 6.46683 40.39 6.46683 40.9758 7.05262C41.5616 7.63841 41.5616 8.58815 40.9758 9.17394L26.1209 24.0289L40.9199 38.8279C41.5057 39.4137 41.5057 40.3634 40.9199 40.9492C40.3341 41.535 39.3844 41.535 38.7986 40.9492L23.9996 26.1502L9.20054 40.9492C8.61475 41.535 7.665 41.535 7.07922 40.9492C6.49343 40.3634 6.49343 39.4137 7.07922 38.8279L21.8782 24.0289L7.02332 9.17394C6.43754 8.58815 6.43754 7.63841 7.02332 7.05262Z" fill="#FFFFFF" stroke="#FFFFFF" stroke-width="4"/>
</svg>

