<svg clip-rule="evenodd" fill-rule="evenodd" stroke-linejoin="round" stroke-miterlimit="2" viewBox="0 0 560 400" xmlns="http://www.w3.org/2000/svg"><path d="m1209.71 287.26h-565.21c-10.97 0-19.997 9.025-19.999 19.995l-.092 469.25v.004c0 10.971 9.028 19.999 19.999 19.999h565.302c10.97 0 20-9.028 20-19.999v-469.25c0-10.971-9.03-19.999-20-19.999z" fill="#ef323d" fill-rule="nonzero" transform="matrix(.446061 0 0 .446061 -133.52456718 -41.71338286)"/><g fill="#fff" transform="matrix(.446061 0 0 .446061 144.987 86.4221)"><path d="m787.901 706.33h-44.101c-1.111 0-2.025.914-2.025 2.025v10.111c0 1.111.914 2.026 2.025 2.026h12.102c1.111 0 2.025.914 2.025 2.025v35.986c0 1.111.914 2.025 2.026 2.025h11.796c1.111 0 2.025-.914 2.025-2.025v-35.986c0-1.111.914-2.025 2.025-2.025h12.102c1.111 0 2.025-.915 2.025-2.026v-10.111c0-1.111-.914-2.025-2.025-2.025z" fill-rule="nonzero" transform="translate(-624.38 -287.26)"/><path d="m933.76 706.33h-16.883c-1.111 0-2.025.914-2.025 2.025v50.148c0 1.111.914 2.026 2.025 2.026h16.806c19.137 0 31.079-10.411 31.079-27.252 0-16.535-11.482-26.946-31.003-26.946zm-.786 40.343h-.743c-1.12.009-2.049-.905-2.058-2.025v-22.436c.009-1.12.938-2.034 2.058-2.025h.899c10.269 0 15.482 3.981 15.482 13.09 0 9.416-5.213 13.397-15.637 13.397z" fill-rule="nonzero" transform="translate(-624.38 -287.26)"/><path d="m396.059 423.61c0-2.506-2.034-4.54-4.54-4.54h-7.129c-2.506 0-4.54 2.034-4.54 4.54v45.118c0 2.506 2.034 4.54 4.54 4.54h7.129c2.506 0 4.54-2.034 4.54-4.54z"/><g fill-rule="nonzero" transform="translate(-624.38 -287.26)"><path d="m873.33 706.33h-11.566c-1.111 0-2.025.914-2.025 2.025v26.911c0 9.034-2.45 12.172-8.497 12.172-6.048 0-8.497-3.138-8.497-12.172v-26.911c0-1.111-.915-2.025-2.025-2.025h-11.567c-1.11 0-2.025.914-2.025 2.025v28.442c0 16.612 7.426 25.186 24.114 25.186 16.229 0 24.114-9.033 24.114-25.262v-28.365c0-1.111-.914-2.025-2.025-2.025 0 0-.001-.001-.001-.001z"/><path d="m691.98 727.76c-1.674-.717-6.278-2.628-6.909-2.833-4.477-1.454-4.689-3.583-3.944-5.632.744-2.048 3.758-2.959 6.638-1.788 1.546.629 5.383 4.108 5.8 4.515.278.324.647.558 1.059.67.509.107 1.04-.01 1.457-.321l8.433-6.295c.46-.343.731-.885.731-1.458 0-.423-.147-.833-.416-1.159-4.591-5.547-11.244-8.588-19.126-8.588-11.636 0-20.286 7.043-20.286 16.153 0 7.956 3.557 12.661 12.88 16.712 2.411.851 5.515 2.118 6.757 2.484 5.432 1.598 5.64 4.31 4.745 6.775s-4.507 3.523-7.987 2.151c-2.429-.957-6.232-4.632-6.497-5-.256-.303-.603-.514-.99-.601l-.027-.006c-.489-.104-1 0-1.41.287l-8.487 5.922c-.486.34-.777.898-.777 1.492 0 .402.133.793.379 1.112 4.907 6.347 12.099 9.703 20.475 9.703 12.478 0 21.358-7.731 21.358-18.219 0-6.889-3.752-11.788-13.856-16.076z"/><path d="m1087.6 704.87c-15.66 0-28.55 12.889-28.55 28.553s12.89 28.553 28.55 28.553 28.55-12.889 28.55-28.553-12.89-28.553-28.55-28.553zm0 41.296c-6.99 0-12.74-5.752-12.74-12.742s5.75-12.742 12.74-12.742 12.74 5.752 12.74 12.742c-.01 6.987-5.75 12.734-12.74 12.742z"/><path d="m1178 727.76c-1.67-.717-6.28-2.628-6.91-2.833-4.48-1.454-4.69-3.583-3.94-5.632.74-2.048 3.75-2.959 6.64-1.788 1.54.629 5.38 4.108 5.8 4.515.27.324.64.558 1.05.67.51.107 1.04-.01 1.46-.321l8.43-6.295c.46-.343.74-.885.74-1.458 0-.423-.15-.833-.42-1.159-4.59-5.547-11.24-8.588-19.13-8.588-11.63 0-20.28 7.043-20.28 16.153 0 7.956 3.55 12.661 12.88 16.712 2.41.851 5.51 2.118 6.75 2.484 5.44 1.598 5.64 4.31 4.75 6.775-.9 2.465-4.51 3.523-7.99 2.151-2.43-.957-6.23-4.632-6.49-5-.26-.303-.61-.514-.99-.601l-.03-.006c-.49-.104-1 0-1.41.287l-8.49 5.922c-.49.34-.78.898-.78 1.492 0 .402.14.793.38 1.112 4.91 6.347 12.1 9.703 20.48 9.703 12.48 0 21.36-7.731 21.36-18.219 0-6.889-3.76-11.788-13.86-16.076z"/><path d="m938.42 325.23c-44.982 0-81.997 37.015-81.997 81.997s37.015 81.997 81.997 81.997 82-37.015 82-81.997-37.018-81.997-82-81.997zm0 122c-21.943 0-39.999-18.056-39.999-39.999s18.056-39.999 39.999-39.999 39.999 18.056 39.999 39.999c-.025 21.933-18.066 39.974-39.999 39.999z"/><path d="m1185.7 327.23h-112c-2.19 0-4 1.806-4 4v31.999c0 2.194 1.81 4 4 4h76v69.997c0 5.485-4.52 9.999-10 9.999v.001h-30c-20.59-.025-37.97-15.914-39.84-36.413-.2-2.029-1.93-3.594-3.96-3.585h-32.08c-.01 0-.03 0-.04 0-2.18 0-3.98 1.796-3.98 3.978 0 .068.01.136.01.205 2.21 42.25 37.58 75.813 79.89 75.814h36c2.19 0 4-1.806 4-4v-16c0-10.971 9.03-19.999 20-19.999h16c2.19 0 4-1.806 4-4v-112c0-2.194-1.81-4-4-4z"/><path d="m841.227 367.227-16.027.003c-10.971 0-19.999-9.028-19.999-19.999 0-.013 0-.027 0-.04l.032-15.96c0-2.194-1.806-4-4-4h-132c-2.194 0-4 1.806-4 4v151.99c0 2.194 1.806 4 4 4h31.999c2.194 0 4-1.806 4-4v-106c0-5.486 4.514-10 9.999-10h10c5.486 0 10 4.514 10 10v65.901c0 2.194 1.805 4 3.999 4h32c2.194 0 3.999-1.806 3.999-4v-65.901c0-5.486 4.514-10 10-10h9.955c5.484 0 9.997 4.512 9.999 9.996l.045 106.01c0 2.194 1.806 4 4 4h31.999c2.194 0 4-1.806 4-4v-112c0-2.194-1.806-4-4-4z"/><path d="m853.8 507.25h112c2.194 0 4 1.806 4 4v15.978c0 10.961 9.012 19.985 19.973 19.999l16.027.021c2.19 0 4 1.806 4 4v112c0 2.194-1.81 4-4 4h-32c-2.194 0-4-1.806-4-4v-106c0-5.483-4.51-9.996-9.994-9.999h-60.01c-5.483.003-9.993 4.516-9.993 9.999v106c0 2.194-1.806 4-4 4h-31.999c-2.194 0-4-1.806-4-4v-151.99c0-2.194 1.806-4 4-4 0 0-.004-.008-.004-.008z"/><path d="m821.23 547.25-16.078-.063c-10.942-.043-19.921-9.057-19.921-19.999v-15.937c0-2.194-1.806-4-4-4h-35.999c-43.885 0-79.997 36.112-79.997 79.997v75.997c0 2.194 1.806 4 4 4h31.999c2.194 0 4-1.806 4-4v-75.997c0-21.942 18.056-39.998 39.999-39.998h30.005c5.483.003 9.993 4.516 9.993 9.999v19.999c0 5.486-4.514 10-9.999 10h-43.998c-2.194 0-4 1.806-4 4v31.999c0 2.194 1.806 4 4 4h44.004c5.483.003 9.993 4.516 9.993 9.999v26c0 2.194 1.806 4 4 4h31.999c2.194 0 4-1.806 4-4v-112c0-2.194-1.805-4-4-4z"/><path d="m1108.6 547.25h77.13c2.19 0 4-1.805 4-4v-32c0-2.194-1.81-4-4-4h-77.06c-34.27 0-65.04 22.002-75.09 54.766-16.38 53.455 21.65 102.54 71.97 105.13.07.003.13.005.2.005 2.18 0 3.98-1.795 3.98-3.977 0-.013 0-.025 0-.038v-25.884c0-5.484 4.51-9.997 9.99-10h20.01c5.48.003 10 4.516 10 10v26.001c0 2.194 1.8 4 4 4h32c2.19 0 4-1.806 4-4v-72.001c0-2.194-1.81-4-4-4h-72c-2.2 0-4 1.806-4 4v21.128.018c0 6.237-5.14 11.368-11.37 11.368-.66 0-1.32-.057-1.97-.171-4.15-.699-8.08-2.403-11.42-4.963-12.95-10.246-19.45-28.285-12.27-46.97 5.76-14.741 20.07-24.473 35.9-24.409"/></g></g></svg>