<svg width="48" height="48" viewBox="0 0 48 48" fill="none" xmlns="http://www.w3.org/2000/svg">
<path d="M25.081 6.41796C26.2076 5.40658 28 6.20618 28 7.72023V40.2787C28 41.7928 26.2077 42.5924 25.081 41.581L16.875 34.2148C16.0034 33.4323 14.8734 32.9995 13.702 32.9995H9C6.10051 32.9995 3.75 30.649 3.75 27.7495V20.2495C3.75 17.35 6.10051 14.9995 9 14.9995H13.702C14.8734 14.9995 16.0034 14.5667 16.875 13.7842L25.081 6.41796ZM25.5 9.40134L18.5451 15.6446C17.2146 16.8389 15.4898 17.4995 13.702 17.4995H9C7.48122 17.4995 6.25 18.7307 6.25 20.2495V27.7495C6.25 29.2683 7.48122 30.4995 9 30.4995H13.702C15.4898 30.4995 17.2146 31.1601 18.5451 32.3544L25.5 38.5976V9.40134ZM32.3661 18.3656C32.8543 17.8774 33.6457 17.8774 34.1339 18.3656L38 22.2317L41.8661 18.3656C42.3543 17.8774 43.1457 17.8774 43.6339 18.3656C44.122 18.8538 44.122 19.6452 43.6339 20.1334L39.7678 23.9995L43.6339 27.8656C44.122 28.3538 44.122 29.1452 43.6339 29.6334C43.1457 30.1215 42.3543 30.1215 41.8661 29.6334L38 25.7673L34.1339 29.6334C33.6457 30.1215 32.8543 30.1215 32.3661 29.6334C31.878 29.1452 31.878 28.3538 32.3661 27.8656L36.2322 23.9995L32.3661 20.1334C31.878 19.6452 31.878 18.8538 32.3661 18.3656Z" fill="#212121"/>
</svg>
