<svg width="32" height="32" viewBox="0 0 32 32" fill="none" xmlns="http://www.w3.org/2000/svg">
<path d="M16 10.9992C13.2386 10.9992 11 13.2378 11 15.9992C11 18.7607 13.2386 20.9992 16 20.9992C18.7614 20.9992 21 18.7607 21 15.9992C21 13.2378 18.7614 10.9992 16 10.9992ZM13 15.9992C13 14.3424 14.3431 12.9992 16 12.9992C17.6569 12.9992 19 14.3424 19 15.9992C19 17.6561 17.6569 18.9992 16 18.9992C14.3431 18.9992 13 17.6561 13 15.9992ZM12.8403 29.6272C13.8754 29.8745 14.936 29.9994 16.0003 29.9992C17.0633 29.9976 18.1225 29.8718 19.1563 29.6242C19.4531 29.5541 19.721 29.3937 19.9231 29.1653C20.1252 28.9368 20.2518 28.6514 20.2853 28.3482L20.5202 26.2182C20.5538 25.8673 20.7123 25.54 20.9669 25.2961C21.2214 25.0522 21.5551 24.9078 21.9072 24.8892C22.1404 24.8794 22.3727 24.9233 22.5863 25.0172L24.5412 25.8742C24.728 25.9563 24.9297 25.9987 25.1337 25.9987C25.3377 25.9987 25.5395 25.9563 25.7262 25.8742C25.9104 25.7941 26.0759 25.6766 26.2123 25.5292C27.6568 23.9728 28.735 22.1131 29.3682 20.0862C29.4589 19.7931 29.4561 19.4789 29.3602 19.1874C29.2644 18.8959 29.0802 18.6414 28.8333 18.4592L27.1043 17.1842C26.8196 16.9771 26.618 16.6752 26.5357 16.3329C26.4535 15.9906 26.4958 15.6301 26.6553 15.3162C26.7622 15.107 26.917 14.9261 27.1073 14.7882L28.8273 13.5172C29.0757 13.3356 29.2611 13.0808 29.3574 12.7885C29.4537 12.4961 29.4561 12.181 29.3642 11.8872C28.7321 9.86 27.6533 8.00035 26.2073 6.44522C25.9982 6.22166 25.7249 6.06844 25.4251 6.00665C25.1253 5.94487 24.8137 5.97755 24.5332 6.10022L22.5873 6.95624C22.374 7.04921 22.1418 7.09069 21.9095 7.07733C21.6772 7.06397 21.4513 6.99612 21.2501 6.8793C21.0488 6.76248 20.8779 6.59995 20.7511 6.40485C20.6244 6.20975 20.5453 5.98755 20.5202 5.75623L20.2843 3.63623C20.2513 3.32929 20.1228 3.04042 19.9171 2.81027C19.7113 2.58012 19.4386 2.42028 19.1372 2.35324C18.1104 2.1238 17.0624 2.00214 16.0102 1.99023C14.9519 2.00276 13.8976 2.12441 12.8642 2.35324C12.5623 2.4196 12.289 2.57953 12.0833 2.81024C11.8771 3.0388 11.7488 3.32703 11.7172 3.63324L11.4802 5.75522C11.4543 5.9869 11.3746 6.2093 11.2473 6.4046C11.12 6.59991 10.9488 6.76269 10.7473 6.87991C10.5458 6.99714 10.3196 7.06556 10.0869 7.07968C9.85422 7.0938 9.62145 7.05325 9.40725 6.96124L7.46126 6.10422C7.27614 6.0253 7.07698 5.98465 6.87574 5.98465C6.67451 5.98465 6.47536 6.0253 6.29025 6.10422C6.1005 6.18385 5.93001 6.30319 5.79025 6.45422C4.34425 8.01123 3.26489 9.87201 2.63125 11.9002C2.54103 12.1932 2.54415 12.507 2.64018 12.7982C2.73621 13.0893 2.92041 13.3434 3.16725 13.5252L4.89225 14.7972C5.17575 15.0058 5.37612 15.3082 5.45778 15.6505C5.53943 15.9929 5.49709 16.3531 5.33825 16.6672C5.2334 16.8757 5.08054 17.0564 4.89225 17.1942L3.16725 18.4692C2.91967 18.6514 2.73507 18.9062 2.63917 19.1982C2.54327 19.4901 2.54085 19.8048 2.63224 20.0982C3.26559 22.1278 4.34496 23.9899 5.79126 25.5482C5.92796 25.6947 6.0934 25.8115 6.27725 25.8912C6.46402 25.9719 6.66532 26.0135 6.86876 26.0135C7.0722 26.0135 7.27348 25.9719 7.46025 25.8912L9.41525 25.0322C9.62848 24.9401 9.86036 24.8993 10.0922 24.913C10.3241 24.9268 10.5495 24.9948 10.7504 25.1115C10.9512 25.2282 11.1219 25.3904 11.2486 25.585C11.3754 25.7797 11.4547 26.0014 11.4802 26.2322L11.7153 28.3582C11.7496 28.6598 11.876 28.9434 12.0773 29.1704C12.2786 29.3975 12.545 29.557 12.8403 29.6272ZM18.3413 27.7612C16.7983 28.0777 15.2072 28.0777 13.6643 27.7612L13.4693 26.0212C13.374 25.17 12.9681 24.3838 12.3292 23.8132C11.8291 23.3729 11.2147 23.0829 10.5568 22.9767C9.89898 22.8706 9.22451 22.9525 8.61125 23.2132L7.00525 23.9132C5.96924 22.7269 5.17199 21.3517 4.65725 19.8632L6.08125 18.8112C6.52119 18.487 6.8788 18.064 7.12526 17.5763C7.37171 17.0885 7.50012 16.5497 7.50012 16.0032C7.50012 15.4568 7.37171 14.9179 7.12526 14.4302C6.8788 13.9424 6.52119 13.5194 6.08125 13.1952L4.65925 12.1462C5.17459 10.6592 5.9718 9.28544 7.00725 8.10022L8.60725 8.80023C9.04825 8.99497 9.52516 9.09513 10.0072 9.09424C10.8657 9.09155 11.6933 8.77343 12.3325 8.20038C12.9718 7.62733 13.3781 6.83933 13.4743 5.98624L13.6683 4.23923C14.4419 4.08967 15.2273 4.00936 16.0152 3.99924C16.7972 4.00916 17.5766 4.08913 18.3443 4.23822L18.5313 5.97824C18.6237 6.83224 19.0286 7.62187 19.6683 8.19522C20.1687 8.63818 20.7848 8.92978 21.4447 9.03601C22.1045 9.14224 22.781 9.05873 23.3952 8.79523L24.9953 8.09525C26.0318 9.28023 26.8294 10.6544 27.3442 12.1422L25.9223 13.1882C25.4801 13.5113 25.1203 13.9342 24.8724 14.4224C24.6244 14.9107 24.4951 15.4506 24.4951 15.9982C24.4951 16.5459 24.6244 17.0858 24.8724 17.574C25.1203 18.0623 25.4801 18.4852 25.9223 18.8082L27.3442 19.8572C26.8292 21.3429 26.0334 22.7158 25.0003 23.9012L23.4002 23.2012C22.8996 22.9784 22.3534 22.8772 21.8062 22.9059C21.259 22.9346 20.7264 23.0924 20.2518 23.3664C19.7773 23.6403 19.3742 24.0227 19.0757 24.4822C18.7772 24.9417 18.5917 25.4653 18.5343 26.0102L18.3413 27.7612Z" fill="white"/>
</svg>
