<svg width="48" height="48" viewBox="0 0 48 48" fill="none" xmlns="http://www.w3.org/2000/svg">
<path d="M25.081 6.41796C26.2076 5.40658 28 6.20618 28 7.72023V40.2787C28 41.7928 26.2077 42.5924 25.081 41.581L16.875 34.2148C16.0034 33.4323 14.8734 32.9995 13.702 32.9995H9C6.10051 32.9995 3.75 30.649 3.75 27.7495V20.2495C3.75 17.35 6.10051 14.9995 9 14.9995H13.702C14.8734 14.9995 16.0034 14.5667 16.875 13.7842L25.081 6.41796ZM25.5 9.40134L18.5451 15.6446C17.2146 16.8389 15.4898 17.4995 13.702 17.4995H9C7.48122 17.4995 6.25 18.7307 6.25 20.2495V27.7495C6.25 29.2683 7.48122 30.4995 9 30.4995H13.702C15.4898 30.4995 17.2146 31.1601 18.5451 32.3544L25.5 38.5976V9.40134ZM36.3376 8.39511C36.8095 7.89118 37.6005 7.86519 38.1044 8.33705L38.1053 8.33788C38.1053 8.33788 37.7675 7.99949 38.1151 8.3471L38.1336 8.36485C38.1485 8.37924 38.1685 8.39875 38.1933 8.42337C38.2428 8.47259 38.3113 8.54225 38.396 8.63219C38.5655 8.81202 38.8004 9.07325 39.0785 9.41458C39.6344 10.0968 40.3656 11.102 41.094 12.4198C42.5525 15.0582 44.0001 18.9521 44.0001 23.9995C44.0001 29.0469 42.5525 32.9407 41.094 35.5792C40.3656 36.897 39.6344 37.9021 39.0785 38.5844C38.8004 38.9257 38.5655 39.1869 38.396 39.3668C38.3714 39.393 38.3481 39.4174 38.3262 39.4402C38.273 39.4955 38.2284 39.5407 38.1933 39.5756C38.1685 39.6002 38.1485 39.6197 38.1336 39.6341L38.1151 39.6519L38.1088 39.6579L38.1063 39.6601L38.1053 39.6611C38.1053 39.6611 38.2392 39.5272 38.3262 39.4402C38.4326 39.3338 38.4688 39.2975 38.1044 39.6619C37.6005 40.1338 36.8095 40.1078 36.3376 39.6039C35.8666 39.1008 35.8917 38.3116 36.3931 37.8395L36.3949 37.8378L36.3981 37.8347C36.404 37.829 36.4148 37.8185 36.4304 37.803C36.4614 37.7721 36.5111 37.7217 36.5767 37.6521C36.708 37.5128 36.9029 37.2967 37.1404 37.0052C37.6157 36.4218 38.2595 35.5395 38.9061 34.3698C40.1976 32.0332 41.5001 28.5521 41.5001 23.9995C41.5001 19.4469 40.1976 15.9657 38.9061 13.6292C38.2595 12.4595 37.6157 11.5771 37.1404 10.9938C36.9029 10.7023 36.708 10.4862 36.5767 10.3469C36.5111 10.2772 36.4614 10.2269 36.4304 10.196C36.4148 10.1805 36.404 10.1699 36.3981 10.1643L36.3949 10.1612L36.3931 10.1595C35.8917 9.68734 35.8666 8.89817 36.3376 8.39511ZM32.3341 14.3989C32.8038 13.893 33.5947 13.8637 34.1006 14.3335C34.1008 14.3337 34.1014 14.3342 34.1014 14.3342L34.1023 14.335L34.1043 14.3369L34.1092 14.3416L34.1229 14.3545C34.1336 14.3648 34.1477 14.3783 34.1647 14.395C34.1988 14.4284 34.2451 14.4748 34.3018 14.5338C34.4152 14.6519 34.5707 14.821 34.7541 15.0392C35.1202 15.4752 35.6009 16.1112 36.0798 16.9321C37.0374 18.5738 38.0001 20.9771 38.0001 23.9995C38.0001 27.0219 37.0374 29.4252 36.0798 31.0668C35.6009 31.8878 35.1202 32.5238 34.7541 32.9597C34.5707 33.178 34.4152 33.3471 34.3018 33.4651C34.2451 33.5242 34.1988 33.5705 34.1647 33.604L34.1452 33.623L34.1229 33.6445L34.1092 33.6574L34.1043 33.6621L34.1015 33.6646L34.1006 33.6655C33.5947 34.1352 32.8038 34.1059 32.3341 33.6C31.8653 33.0953 31.8935 32.3067 32.3962 31.8366L32.3979 31.835L32.414 31.8193C32.4312 31.8025 32.4601 31.7736 32.4991 31.7331C32.5771 31.6519 32.695 31.5241 32.8398 31.3517C33.1299 31.0064 33.5242 30.4862 33.9203 29.8071C34.7127 28.4488 35.5001 26.4771 35.5001 23.9995C35.5001 21.5219 34.7127 19.5502 33.9203 18.1918C33.5242 17.5128 33.1299 16.9926 32.8398 16.6472C32.695 16.4749 32.5771 16.3471 32.4991 16.2659C32.4601 16.2253 32.4312 16.1965 32.414 16.1797L32.3973 16.1635L32.3981 16.1642C31.8929 15.6944 31.8645 14.9046 32.3341 14.3989ZM38.1151 8.3471L38.1053 8.33788L38.1063 8.33884L38.1088 8.34111L38.1151 8.3471ZM34.1006 14.3335L34.1647 14.395C34.0695 14.3059 34.097 14.3303 34.1006 14.3335Z" fill="#212121"/>
</svg>
